{"asset":{"version":"2.0","generator":"Blockbench 5.0.7 glTF exporter"},"scenes":[{"nodes":[0,1,2,3,4,5,6],"name":"blockbench_export"}],"scene":0,"nodes":[{"translation":[0,0.5,0],"name":"sphere","mesh":0},{"rotation":[-0.25881904510252074,0,0,0.9659258262890683],"translation":[0.1875,0.8125,-0.25],"name":"pyramid","mesh":1},{"rotation":[-0.25881904510252074,0,0,0.9659258262890683],"translation":[-0.1875,0.8125,-0.25],"name":"pyramid","mesh":2},{"rotation":[-0.7518398074789773,0,0,0.659345815100069],"translation":[-0.1875,0.8125,-0.25],"name":"pyramid","mesh":3},{"rotation":[-0.7518398074789773,0,0,0.659345815100069],"translation":[0.1875,0.8125,-0.25],"name":"pyramid","mesh":4},{"rotation":[-0.9063077870366499,0,0,0.42261826174069944],"translation":[-0.125,0.3125,-0.25],"name":"pyramid","mesh":5},{"rotation":[-0.9063077870366499,0,0,0.42261826174069944],"translation":[0.125,0.3125,-0.25],"name":"pyramid","mesh":6}],"bufferViews":[{"buffer":0,"byteOffset":0,"byteLength":3168,"target":34962,"byteStride":12},{"buffer":0,"byteOffset":3168,"byteLength":3168,"target":34962,"byteStride":12},{"buffer":0,"byteOffset":6336,"byteLength":2112,"target":34962,"byteStride":8},{"buffer":0,"byteOffset":8448,"byteLength":720,"target":34963},{"buffer":0,"byteOffset":9168,"byteLength":192,"target":34962,"byteStride":12},{"buffer":0,"byteOffset":9360,"byteLength":192,"target":34962,"byteStride":12},{"buffer":0,"byteOffset":9552,"byteLength":128,"target":34962,"byteStride":8},{"buffer":0,"byteOffset":9680,"byteLength":36,"target":34963},{"buffer":0,"byteOffset":9716,"byteLength":192,"target":34962,"byteStride":12},{"buffer":0,"byteOffset":9908,"byteLength":192,"target":34962,"byteStride":12},{"buffer":0,"byteOffset":10100,"byteLength":128,"target":34962,"byteStride":8},{"buffer":0,"byteOffset":10228,"byteLength":36,"target":34963},{"buffer":0,"byteOffset":10264,"byteLength":192,"target":34962,"byteStride":12},{"buffer":0,"byteOffset":10456,"byteLength":192,"target":34962,"byteStride":12},{"buffer":0,"byteOffset":10648,"byteLength":128,"target":34962,"byteStride":8},{"buffer":0,"byteOffset":10776,"byteLength":36,"target":34963},{"buffer":0,"byteOffset":10812,"byteLength":192,"target":34962,"byteStride":12},{"buffer":0,"byteOffset":11004,"byteLength":192,"target":34962,"byteStride":12},{"buffer":0,"byteOffset":11196,"byteLength":128,"target":34962,"byteStride":8},{"buffer":0,"byteOffset":11324,"byteLength":36,"target":34963},{"buffer":0,"byteOffset":11360,"byteLength":192,"target":34962,"byteStride":12},{"buffer":0,"byteOffset":11552,"byteLength":192,"target":34962,"byteStride":12},{"buffer":0,"byteOffset":11744,"byteLength":128,"target":34962,"byteStride":8},{"buffer":0,"byteOffset":11872,"byteLength":36,"target":34963},{"buffer":0,"byteOffset":11908,"byteLength":192,"target":34962,"byteStride":12},{"buffer":0,"byteOffset":12100,"byteLength":192,"target":34962,"byteStride":12},{"buffer":0,"byteOffset":12292,"byteLength":128,"target":34962,"byteStride":8},{"buffer":0,"byteOffset":12420,"byteLength":36,"target":34963}],"buffers":[{"byteLength":12456,"uri":"data:application/octet-stream;base64,"}],"accessors":[{"bufferView":0,"componentType":5126,"count":264,"max":[0.5,0.5,0.5],"min":[-0.5,-0.5,-0.5],"type":"VEC3"},{"bufferView":1,"componentType":5126,"count":264,"max":[0.9659258127212524,0.9659258127212524,0.9659258127212524],"min":[-0.9659258127212524,-0.9659258127212524,-0.9659258127212524],"type":"VEC3"},{"bufferView":2,"componentType":5126,"count":264,"max":[0.7892138361930847,0.671875],"min":[0.005047542974352837,0],"type":"VEC2"},{"bufferView":3,"componentType":5123,"count":360,"max":[263],"min":[0],"type":"SCALAR"},{"bufferView":4,"componentType":5126,"count":16,"max":[0.0625,0.5,0.0625],"min":[-0.0625,0,-0.0625],"type":"VEC3"},{"bufferView":5,"componentType":5126,"count":16,"max":[0.9922778606414795,0.12403473258018494,0.9922778606414795],"min":[-0.9922778606414795,-1,-0.9922778606414795],"type":"VEC3"},{"bufferView":6,"componentType":5126,"count":16,"max":[0.3125,0.34568721055984497],"min":[0.00011882469698321074,0.15625],"type":"VEC2"},{"bufferView":7,"componentType":5123,"count":18,"max":[15],"min":[0],"type":"SCALAR"},{"bufferView":8,"componentType":5126,"count":16,"max":[0.0625,0.5,0.0625],"min":[-0.0625,0,-0.0625],"type":"VEC3"},{"bufferView":9,"componentType":5126,"count":16,"max":[0.9922778606414795,0.12403473258018494,0.9922778606414795],"min":[-0.9922778606414795,-1,-0.9922778606414795],"type":"VEC3"},{"bufferView":10,"componentType":5126,"count":16,"max":[0.37488117814064026,0.548812210559845],"min":[0.28136882185935974,0],"type":"VEC2"},{"bufferView":11,"componentType":5123,"count":18,"max":[15],"min":[0],"type":"SCALAR"},{"bufferView":12,"componentType":5126,"count":16,"max":[0.0625,0.5,0.0625],"min":[-0.0625,0,-0.0625],"type":"VEC3"},{"bufferView":13,"componentType":5126,"count":16,"max":[0.9922778606414795,0.12403473258018494,0.9922778606414795],"min":[-0.9922778606414795,-1,-0.9922778606414795],"type":"VEC3"},{"bufferView":14,"componentType":5126,"count":16,"max":[0.6248811483383179,0.736312210559845],"min":[0,0.21875],"type":"VEC2"},{"bufferView":15,"componentType":5123,"count":18,"max":[15],"min":[0],"type":"SCALAR"},{"bufferView":16,"componentType":5126,"count":16,"max":[0.0625,0.5,0.0625],"min":[-0.0625,0,-0.0625],"type":"VEC3"},{"bufferView":17,"componentType":5126,"count":16,"max":[0.9922778606414795,0.12403473258018494,0.9922778606414795],"min":[-0.9922778606414795,-1,-0.9922778606414795],"type":"VEC3"},{"bufferView":18,"componentType":5126,"count":16,"max":[0.49988117814064026,0.736312210559845],"min":[0.04699382558465004,0.125],"type":"VEC2"},{"bufferView":19,"componentType":5123,"count":18,"max":[15],"min":[0],"type":"SCALAR"},{"bufferView":20,"componentType":5126,"count":16,"max":[0.0625,0.375,0.0625],"min":[-0.0625,0.125,-0.0625],"type":"VEC3"},{"bufferView":21,"componentType":5126,"count":16,"max":[0.9701424837112427,0.24253562092781067,0.9701424837112427],"min":[-0.9701424837112427,-1,-0.9701424837112427],"type":"VEC3"},{"bufferView":22,"componentType":5126,"count":16,"max":[0.562059760093689,0.546875],"min":[0.0004402101330924779,0],"type":"VEC2"},{"bufferView":23,"componentType":5123,"count":18,"max":[15],"min":[0],"type":"SCALAR"},{"bufferView":24,"componentType":5126,"count":16,"max":[0.0625,0.375,0.0625],"min":[-0.0625,0.125,-0.0625],"type":"VEC3"},{"bufferView":25,"componentType":5126,"count":16,"max":[0.9701424837112427,0.24253562092781067,0.9701424837112427],"min":[-0.9701424837112427,-1,-0.9701424837112427],"type":"VEC3"},{"bufferView":26,"componentType":5126,"count":16,"max":[0.671875,0.7069177031517029],"min":[0.18794021010398865,0],"type":"VEC2"},{"bufferView":27,"componentType":5123,"count":18,"max":[15],"min":[0],"type":"SCALAR"}],"materials":[{"pbrMetallicRoughness":{"metallicFactor":0,"roughnessFactor":1,"baseColorTexture":{"index":0}},"alphaMode":"MASK","alphaCutoff":0.05,"doubleSided":true}],"textures":[{"sampler":0,"source":0,"name":"texture"}],"samplers":[{"magFilter":9728,"minFilter":9728,"wrapS":33071,"wrapT":33071}],"images":[{"mimeType":"image/png","uri":"data:image/png;base64,"}],"meshes":[{"primitives":[{"mode":4,"attributes":{"POSITION":0,"NORMAL":1,"TEXCOORD_0":2},"indices":3,"material":0}]},{"primitives":[{"mode":4,"attributes":{"POSITION":4,"NORMAL":5,"TEXCOORD_0":6},"indices":7,"material":0}]},{"primitives":[{"mode":4,"attributes":{"POSITION":8,"NORMAL":9,"TEXCOORD_0":10},"indices":11,"material":0}]},{"primitives":[{"mode":4,"attributes":{"POSITION":12,"NORMAL":13,"TEXCOORD_0":14},"indices":15,"material":0}]},{"primitives":[{"mode":4,"attributes":{"POSITION":16,"NORMAL":17,"TEXCOORD_0":18},"indices":19,"material":0}]},{"primitives":[{"mode":4,"attributes":{"POSITION":20,"NORMAL":21,"TEXCOORD_0":22},"indices":23,"material":0}]},{"primitives":[{"mode":4,"attributes":{"POSITION":24,"NORMAL":25,"TEXCOORD_0":26},"indices":27,"material":0}]}]}